<svg xmlns="http://www.w3.org/2000/svg" version="1.1" xmlns:xlink="http://www.w3.org/1999/xlink" width="100" height="100"><svg xmlns="http://www.w3.org/2000/svg" version="1.1" xmlns:xlink="http://www.w3.org/1999/xlink" width="100" height="100"><svg id="Calque_1" xmlns="http://www.w3.org/2000/svg" viewBox="0 0 100 100"><defs><style>.cls-1{fill:#b5ff6d;stroke-width:0px;}</style></defs><path class="cls-1" d="m99.9976,19.94175v38.88c0,7.29999-5.91998,13.22003-13.22003,13.22003s-13.20996-5.92004-13.20996-13.22003V19.94175c0-7.29999,5.90997-13.21997,13.20996-13.21997s13.22003,5.91998,13.22003,13.21997Z"></path><path class="cls-1" d="m63.21497,41.17818v38.88c0,7.29999-5.91998,13.22003-13.22003,13.22003s-13.20996-5.92004-13.20996-13.22003v-38.88c0-7.29999,5.90997-13.21997,13.20996-13.21997s13.22003,5.91998,13.22003,13.21997Z"></path><path class="cls-1" d="m26.43239,19.94175v38.88c0,7.29999-5.91998,13.22003-13.22003,13.22003S.0024,66.12174.0024,58.82175V19.94175C.0024,12.64176,5.91237,6.72178,13.21236,6.72178s13.22003,5.91998,13.22003,13.21997Z"></path></svg></svg><style>@media (prefers-color-scheme: light) { :root { filter: none; } }
@media (prefers-color-scheme: dark) { :root { filter: none; } }
</style></svg>